<svg viewBox="0 0 200 73" version="1.1" xmlns="http://www.w3.org/2000/svg" xmlns:xlink="http://www.w3.org/1999/xlink" xmlns:sketch="http://www.bohemiancoding.com/sketch/ns">
    <title>VIBBO</title>
    <desc>Created with Sketch.</desc>
    <defs></defs>
    <g id="Page-1" stroke="none" stroke-width="1" fill="none" fill-rule="evenodd" sketch:type="MSPage">
        <g id="VIBBO" sketch:type="MSLayerGroup" transform="translate(0.000000, -2.000000)">
            <g id="Page-1" sketch:type="MSShapeGroup">
                <g id="Profile">
                    <g id="title-with-tabs">
                        <g id="VIBBO" transform="translate(0.000000, 1.760563)">
                            <path d="M83.4292913,44.4051968 C95.6018898,44.4051968 105.469921,34.5352355 105.469921,22.3607577 C105.469921,10.1853327 95.6018898,0.31537154 83.4292913,0.31537154 L83.4292913,44.4051968" id="Fill-1" fill="#009F98"></path>
                            <path d="M120.847244,72.9237495 C133.019843,72.9237495 142.887874,63.054104 142.887874,50.8793102 C142.887874,38.7038855 133.019843,28.8339242 120.847244,28.8339242 L120.847244,72.9237495" id="Fill-2" fill="#F8B033"></path>
                            <path d="M120.847244,0.315687227 L120.847244,28.8339242 C127.583622,28.8339242 133.613858,31.8563138 137.656693,36.6197183 C140.91937,32.775595 142.887874,27.797523 142.887874,22.3601263 C142.887874,10.1853327 133.019843,0.315687227 120.847244,0.315687227" id="Fill-3" fill="#DCDA00"></path>
                            <path d="M120.847244,28.8339243 L120.847244,44.4055125 C127.583622,44.4055125 133.613858,41.383123 137.656693,36.6197183 C133.613858,31.8563138 127.583622,28.8339243 120.847244,28.8339243" id="Fill-4" fill="#D59600"></path>
                            <path d="M193.229606,20.4237008 C201.83748,29.0324915 201.83748,42.9906022 193.229606,51.599393 C184.622362,60.208815 170.666457,60.208815 162.059528,51.599393" id="Fill-5" fill="#D40B52"></path>
                            <path d="M193.229606,20.4237008 C184.622362,11.8149102 170.666457,11.8149102 162.059528,20.4237008 C153.451653,29.0324915 153.451653,42.9906023 162.059528,51.599393 L193.229606,20.4237008" id="Fill-6" fill="#F19000"></path>
                            <path d="M53.127874,16.1350899 L65.9080315,16.1350899 L65.9080315,55.8886353 L53.127874,55.8886353 L53.127874,16.1350899 L53.127874,16.1350899 Z" id="Fill-7" fill="#009F98"></path>
                            <path d="M0,20.452744 L11.6752756,15.2536911 L27.8415748,51.5706653 L16.1662992,56.7694025 L0,20.452744" id="Fill-8" fill="#931B80"></path>
                            <path d="M30.087244,15.2540068 L20.8812598,35.9343613 L27.8415747,51.5706653 L20.8809449,54.6700825 L25.5962205,56.7697182 L41.7625197,20.452744 L30.087244,15.2540068" id="Fill-9" fill="#36A7DF"></path>
                            <path d="M20.8812598,35.9343612 L13.9209449,51.5706652 L20.8809449,54.6700825 L27.8415747,51.5706652 L20.8812598,35.9343612" id="Fill-10" fill="#1F1270"></path>
                            <path d="M100.23874,36.6197183 C96.1959055,41.383123 90.1656693,44.4051968 83.4292913,44.4051968 L83.4292913,72.924065 C95.6018898,72.924065 105.469921,63.054104 105.469921,50.878679 C105.469921,45.4419135 103.501102,40.463526 100.23874,36.6197183" id="Fill-11" fill="#93BF1F"></path>
                            <path d="M83.4292912,28.83424 L83.4292912,44.4051968 C90.1656692,44.4051968 96.1959055,41.383123 100.23874,36.6197183 C96.1959055,31.8563138 90.1656692,28.83424 83.4292912,28.83424" id="Fill-12" fill="#007712"></path>
                        </g>
                    </g>
                </g>
            </g>
        </g>
    </g>
</svg>